<mxfile host="app.diagrams.net" modified="2022-02-24T14:31:40.784Z" agent="5.0 (Windows NT 10.0; Win64; x64) AppleWebKit/537.36 (KHTML, like Gecko) Chrome/98.0.4758.102 Safari/537.36" etag="406L9PlsANC9UF7uUmuI" version="16.6.1" type="github">
  <diagram id="f7xumDj1h7R9mrGEbQ8z" name="Page-1">
    <mxGraphModel dx="3024" dy="397" grid="1" gridSize="10" guides="1" tooltips="1" connect="1" arrows="1" fold="1" page="1" pageScale="1" pageWidth="827" pageHeight="1169" math="0" shadow="0">
      <root>
        <mxCell id="0" />
        <mxCell id="1" parent="0" />
        <mxCell id="wY_cGd22NzN3HougYjzs-134" style="edgeStyle=orthogonalEdgeStyle;rounded=0;orthogonalLoop=1;jettySize=auto;html=1;entryX=0.503;entryY=-0.137;entryDx=0;entryDy=0;entryPerimeter=0;fontSize=18;strokeColor=#6666FF;strokeWidth=3;" edge="1" parent="1" source="wY_cGd22NzN3HougYjzs-131" target="wY_cGd22NzN3HougYjzs-123">
          <mxGeometry relative="1" as="geometry" />
        </mxCell>
        <mxCell id="wY_cGd22NzN3HougYjzs-131" value="Xml&lt;br&gt;BeanDefinitionReader" style="whiteSpace=wrap;html=1;fontSize=18;" vertex="1" parent="1">
          <mxGeometry x="-570" y="912.5" width="190" height="77.5" as="geometry" />
        </mxCell>
        <mxCell id="wY_cGd22NzN3HougYjzs-141" style="edgeStyle=orthogonalEdgeStyle;rounded=0;orthogonalLoop=1;jettySize=auto;html=1;entryX=0.503;entryY=0.034;entryDx=0;entryDy=0;entryPerimeter=0;fontSize=18;strokeColor=#6666FF;strokeWidth=3;" edge="1" parent="1" source="wY_cGd22NzN3HougYjzs-132" target="wY_cGd22NzN3HougYjzs-124">
          <mxGeometry relative="1" as="geometry" />
        </mxCell>
        <mxCell id="wY_cGd22NzN3HougYjzs-132" value="Xxx&lt;br&gt;BeanDefinitionReader" style="whiteSpace=wrap;html=1;fontSize=18;" vertex="1" parent="1">
          <mxGeometry x="-330" y="912.5" width="190" height="77.5" as="geometry" />
        </mxCell>
        <mxCell id="wY_cGd22NzN3HougYjzs-133" style="edgeStyle=orthogonalEdgeStyle;rounded=0;orthogonalLoop=1;jettySize=auto;html=1;exitX=0.5;exitY=1;exitDx=0;exitDy=0;entryX=0.505;entryY=-0.034;entryDx=0;entryDy=0;entryPerimeter=0;fontSize=18;strokeColor=#6666FF;strokeWidth=3;" edge="1" parent="1" source="wY_cGd22NzN3HougYjzs-130" target="wY_cGd22NzN3HougYjzs-122">
          <mxGeometry relative="1" as="geometry" />
        </mxCell>
        <mxCell id="wY_cGd22NzN3HougYjzs-130" value="Annotated&lt;br&gt;BeanDefinitionReader" style="whiteSpace=wrap;html=1;fontSize=18;" vertex="1" parent="1">
          <mxGeometry x="-790" y="910" width="190" height="77.5" as="geometry" />
        </mxCell>
        <mxCell id="wY_cGd22NzN3HougYjzs-2" value="Table" style="shape=table;startSize=30;container=1;collapsible=0;childLayout=tableLayout;fontStyle=1;align=center;flipH=1;flipV=0;" vertex="1" parent="1">
          <mxGeometry x="200" y="470" width="410" height="315" as="geometry" />
        </mxCell>
        <mxCell id="wY_cGd22NzN3HougYjzs-7" value="" style="shape=tableRow;horizontal=0;startSize=0;swimlaneHead=0;swimlaneBody=0;top=0;left=0;bottom=0;right=0;collapsible=0;dropTarget=0;fillColor=none;points=[[0,0.5],[1,0.5]];portConstraint=eastwest;" vertex="1" parent="wY_cGd22NzN3HougYjzs-2">
          <mxGeometry y="30" width="410" height="57" as="geometry" />
        </mxCell>
        <mxCell id="wY_cGd22NzN3HougYjzs-15" value="빈이름" style="shape=partialRectangle;html=1;whiteSpace=wrap;connectable=0;fillColor=none;top=0;left=0;bottom=0;right=0;overflow=hidden;" vertex="1" parent="wY_cGd22NzN3HougYjzs-7">
          <mxGeometry width="205" height="57" as="geometry">
            <mxRectangle width="205" height="57" as="alternateBounds" />
          </mxGeometry>
        </mxCell>
        <mxCell id="wY_cGd22NzN3HougYjzs-8" value="빈 객체" style="shape=partialRectangle;html=1;whiteSpace=wrap;connectable=0;fillColor=none;top=0;left=0;bottom=0;right=0;overflow=hidden;" vertex="1" parent="wY_cGd22NzN3HougYjzs-7">
          <mxGeometry x="205" width="205" height="57" as="geometry">
            <mxRectangle width="205" height="57" as="alternateBounds" />
          </mxGeometry>
        </mxCell>
        <mxCell id="wY_cGd22NzN3HougYjzs-32" style="shape=tableRow;horizontal=0;startSize=0;swimlaneHead=0;swimlaneBody=0;top=0;left=0;bottom=0;right=0;collapsible=0;dropTarget=0;fillColor=none;points=[[0,0.5],[1,0.5]];portConstraint=eastwest;" vertex="1" parent="wY_cGd22NzN3HougYjzs-2">
          <mxGeometry y="87" width="410" height="57" as="geometry" />
        </mxCell>
        <mxCell id="wY_cGd22NzN3HougYjzs-33" value="memberService" style="shape=partialRectangle;html=1;whiteSpace=wrap;connectable=0;fillColor=none;top=0;left=0;bottom=0;right=0;overflow=hidden;" vertex="1" parent="wY_cGd22NzN3HougYjzs-32">
          <mxGeometry width="205" height="57" as="geometry">
            <mxRectangle width="205" height="57" as="alternateBounds" />
          </mxGeometry>
        </mxCell>
        <mxCell id="wY_cGd22NzN3HougYjzs-34" value="MemberServiceImpl@x01" style="shape=partialRectangle;html=1;whiteSpace=wrap;connectable=0;fillColor=none;top=0;left=0;bottom=0;right=0;overflow=hidden;" vertex="1" parent="wY_cGd22NzN3HougYjzs-32">
          <mxGeometry x="205" width="205" height="57" as="geometry">
            <mxRectangle width="205" height="57" as="alternateBounds" />
          </mxGeometry>
        </mxCell>
        <mxCell id="wY_cGd22NzN3HougYjzs-35" style="shape=tableRow;horizontal=0;startSize=0;swimlaneHead=0;swimlaneBody=0;top=0;left=0;bottom=0;right=0;collapsible=0;dropTarget=0;fillColor=none;points=[[0,0.5],[1,0.5]];portConstraint=eastwest;" vertex="1" parent="wY_cGd22NzN3HougYjzs-2">
          <mxGeometry y="144" width="410" height="57" as="geometry" />
        </mxCell>
        <mxCell id="wY_cGd22NzN3HougYjzs-36" value="&lt;span&gt;orderService&lt;/span&gt;" style="shape=partialRectangle;html=1;whiteSpace=wrap;connectable=0;fillColor=none;top=0;left=0;bottom=0;right=0;overflow=hidden;" vertex="1" parent="wY_cGd22NzN3HougYjzs-35">
          <mxGeometry width="205" height="57" as="geometry">
            <mxRectangle width="205" height="57" as="alternateBounds" />
          </mxGeometry>
        </mxCell>
        <mxCell id="wY_cGd22NzN3HougYjzs-37" value="&lt;span style=&quot;color: rgb(0 , 0 , 0) ; font-family: &amp;#34;helvetica&amp;#34; ; font-size: 12px ; font-style: normal ; font-weight: 400 ; letter-spacing: normal ; text-align: center ; text-indent: 0px ; text-transform: none ; word-spacing: 0px ; background-color: rgb(248 , 249 , 250) ; display: inline ; float: none&quot;&gt;OrderServiceImpl@x02&lt;/span&gt;" style="shape=partialRectangle;html=1;whiteSpace=wrap;connectable=0;fillColor=none;top=0;left=0;bottom=0;right=0;overflow=hidden;" vertex="1" parent="wY_cGd22NzN3HougYjzs-35">
          <mxGeometry x="205" width="205" height="57" as="geometry">
            <mxRectangle width="205" height="57" as="alternateBounds" />
          </mxGeometry>
        </mxCell>
        <mxCell id="wY_cGd22NzN3HougYjzs-38" style="shape=tableRow;horizontal=0;startSize=0;swimlaneHead=0;swimlaneBody=0;top=0;left=0;bottom=0;right=0;collapsible=0;dropTarget=0;fillColor=none;points=[[0,0.5],[1,0.5]];portConstraint=eastwest;" vertex="1" parent="wY_cGd22NzN3HougYjzs-2">
          <mxGeometry y="201" width="410" height="57" as="geometry" />
        </mxCell>
        <mxCell id="wY_cGd22NzN3HougYjzs-39" value="&lt;span style=&quot;color: rgb(0 , 0 , 0) ; font-family: &amp;#34;helvetica&amp;#34; ; font-size: 12px ; font-style: normal ; font-weight: 400 ; letter-spacing: normal ; text-align: center ; text-indent: 0px ; text-transform: none ; word-spacing: 0px ; background-color: rgb(248 , 249 , 250) ; display: inline ; float: none&quot;&gt;memberRepository&lt;/span&gt;" style="shape=partialRectangle;html=1;whiteSpace=wrap;connectable=0;fillColor=none;top=0;left=0;bottom=0;right=0;overflow=hidden;" vertex="1" parent="wY_cGd22NzN3HougYjzs-38">
          <mxGeometry width="205" height="57" as="geometry">
            <mxRectangle width="205" height="57" as="alternateBounds" />
          </mxGeometry>
        </mxCell>
        <mxCell id="wY_cGd22NzN3HougYjzs-40" value="&lt;span style=&quot;color: rgb(0 , 0 , 0) ; font-family: &amp;#34;helvetica&amp;#34; ; font-size: 12px ; font-style: normal ; font-weight: 400 ; letter-spacing: normal ; text-align: center ; text-indent: 0px ; text-transform: none ; word-spacing: 0px ; background-color: rgb(248 , 249 , 250) ; display: inline ; float: none&quot;&gt;MemoryMemberRepository@x03&lt;/span&gt;" style="shape=partialRectangle;html=1;whiteSpace=wrap;connectable=0;fillColor=none;top=0;left=0;bottom=0;right=0;overflow=hidden;" vertex="1" parent="wY_cGd22NzN3HougYjzs-38">
          <mxGeometry x="205" width="205" height="57" as="geometry">
            <mxRectangle width="205" height="57" as="alternateBounds" />
          </mxGeometry>
        </mxCell>
        <mxCell id="wY_cGd22NzN3HougYjzs-46" style="shape=tableRow;horizontal=0;startSize=0;swimlaneHead=0;swimlaneBody=0;top=0;left=0;bottom=0;right=0;collapsible=0;dropTarget=0;fillColor=none;points=[[0,0.5],[1,0.5]];portConstraint=eastwest;" vertex="1" parent="wY_cGd22NzN3HougYjzs-2">
          <mxGeometry y="258" width="410" height="57" as="geometry" />
        </mxCell>
        <mxCell id="wY_cGd22NzN3HougYjzs-47" value="discountPolicy" style="shape=partialRectangle;html=1;whiteSpace=wrap;connectable=0;fillColor=none;top=0;left=0;bottom=0;right=0;overflow=hidden;" vertex="1" parent="wY_cGd22NzN3HougYjzs-46">
          <mxGeometry width="205" height="57" as="geometry">
            <mxRectangle width="205" height="57" as="alternateBounds" />
          </mxGeometry>
        </mxCell>
        <mxCell id="wY_cGd22NzN3HougYjzs-48" value="RateDiscountPolicy@x04" style="shape=partialRectangle;html=1;whiteSpace=wrap;connectable=0;fillColor=none;top=0;left=0;bottom=0;right=0;overflow=hidden;" vertex="1" parent="wY_cGd22NzN3HougYjzs-46">
          <mxGeometry x="205" width="205" height="57" as="geometry">
            <mxRectangle width="205" height="57" as="alternateBounds" />
          </mxGeometry>
        </mxCell>
        <mxCell id="wY_cGd22NzN3HougYjzs-53" value="" style="rounded=0;whiteSpace=wrap;html=1;" vertex="1" parent="1">
          <mxGeometry x="300" y="900" width="420" height="210" as="geometry" />
        </mxCell>
        <mxCell id="wY_cGd22NzN3HougYjzs-59" style="edgeStyle=orthogonalEdgeStyle;rounded=0;orthogonalLoop=1;jettySize=auto;html=1;entryX=0;entryY=0.5;entryDx=0;entryDy=0;strokeWidth=3;strokeColor=#FF0000;" edge="1" parent="1" source="wY_cGd22NzN3HougYjzs-54" target="wY_cGd22NzN3HougYjzs-55">
          <mxGeometry relative="1" as="geometry" />
        </mxCell>
        <mxCell id="wY_cGd22NzN3HougYjzs-54" value="&#xa;&#xa;&lt;span style=&quot;color: rgb(0, 0, 0); font-family: helvetica; font-size: 12px; font-style: normal; font-weight: 400; letter-spacing: normal; text-align: center; text-indent: 0px; text-transform: none; word-spacing: 0px; background-color: rgb(248, 249, 250); display: inline; float: none;&quot;&gt;memberService&lt;/span&gt;&#xa;&#xa;" style="ellipse;whiteSpace=wrap;html=1;" vertex="1" parent="1">
          <mxGeometry x="320" y="920" width="140" height="60" as="geometry" />
        </mxCell>
        <mxCell id="wY_cGd22NzN3HougYjzs-55" value="&lt;span style=&quot;font-family: &amp;#34;helvetica&amp;#34;&quot;&gt;memberRepository&lt;/span&gt;" style="ellipse;whiteSpace=wrap;html=1;" vertex="1" parent="1">
          <mxGeometry x="550" y="920" width="150" height="60" as="geometry" />
        </mxCell>
        <mxCell id="wY_cGd22NzN3HougYjzs-64" style="edgeStyle=orthogonalEdgeStyle;rounded=0;orthogonalLoop=1;jettySize=auto;html=1;entryX=0;entryY=0.5;entryDx=0;entryDy=0;strokeColor=#0000FF;strokeWidth=3;" edge="1" parent="1" source="wY_cGd22NzN3HougYjzs-56" target="wY_cGd22NzN3HougYjzs-57">
          <mxGeometry relative="1" as="geometry" />
        </mxCell>
        <mxCell id="wY_cGd22NzN3HougYjzs-56" value="orderService" style="ellipse;whiteSpace=wrap;html=1;" vertex="1" parent="1">
          <mxGeometry x="320" y="1030" width="140" height="60" as="geometry" />
        </mxCell>
        <mxCell id="wY_cGd22NzN3HougYjzs-57" value="discountPolicy" style="ellipse;whiteSpace=wrap;html=1;" vertex="1" parent="1">
          <mxGeometry x="550" y="1030" width="150" height="60" as="geometry" />
        </mxCell>
        <mxCell id="wY_cGd22NzN3HougYjzs-63" value="" style="endArrow=classic;html=1;rounded=0;strokeWidth=3;entryX=0;entryY=1;entryDx=0;entryDy=0;strokeColor=#FF0000;" edge="1" parent="1" source="wY_cGd22NzN3HougYjzs-56" target="wY_cGd22NzN3HougYjzs-55">
          <mxGeometry width="50" height="50" relative="1" as="geometry">
            <mxPoint x="460" y="1060" as="sourcePoint" />
            <mxPoint x="470" y="930" as="targetPoint" />
          </mxGeometry>
        </mxCell>
        <mxCell id="wY_cGd22NzN3HougYjzs-65" value="&lt;font style=&quot;font-size: 22px&quot;&gt;스프링 컨테이너&lt;/font&gt;" style="text;html=1;align=center;verticalAlign=middle;resizable=0;points=[];autosize=1;strokeColor=none;fillColor=none;" vertex="1" parent="1">
          <mxGeometry x="414" y="870" width="180" height="20" as="geometry" />
        </mxCell>
        <mxCell id="wY_cGd22NzN3HougYjzs-66" value="&amp;lt;&amp;lt;interface&amp;gt;&amp;gt;&lt;br&gt;BeanFactory" style="whiteSpace=wrap;html=1;fontSize=22;" vertex="1" parent="1">
          <mxGeometry x="-455" y="200" width="170" height="80" as="geometry" />
        </mxCell>
        <mxCell id="wY_cGd22NzN3HougYjzs-77" style="edgeStyle=orthogonalEdgeStyle;rounded=0;orthogonalLoop=1;jettySize=auto;html=1;entryX=0.5;entryY=1;entryDx=0;entryDy=0;fontSize=22;strokeColor=#000000;strokeWidth=3;" edge="1" parent="1" source="wY_cGd22NzN3HougYjzs-67" target="wY_cGd22NzN3HougYjzs-66">
          <mxGeometry relative="1" as="geometry" />
        </mxCell>
        <mxCell id="wY_cGd22NzN3HougYjzs-67" value="&lt;font style=&quot;font-size: 18px&quot;&gt;&amp;lt;&amp;lt;interface&amp;gt;&amp;gt;&lt;br&gt;ApplicationContext&lt;br&gt;&lt;/font&gt;" style="whiteSpace=wrap;html=1;fontSize=22;" vertex="1" parent="1">
          <mxGeometry x="-455" y="510" width="170" height="70" as="geometry" />
        </mxCell>
        <mxCell id="wY_cGd22NzN3HougYjzs-88" value="&lt;font style=&quot;font-size: 18px&quot;&gt;&amp;lt;&amp;lt;interface&amp;gt;&amp;gt;&lt;br&gt;EnvironmentCapable&lt;br&gt;&lt;/font&gt;" style="whiteSpace=wrap;html=1;fontSize=22;" vertex="1" parent="1">
          <mxGeometry x="-660" y="320" width="180" height="80" as="geometry" />
        </mxCell>
        <mxCell id="wY_cGd22NzN3HougYjzs-89" value="&lt;font style=&quot;font-size: 18px&quot;&gt;&amp;lt;&amp;lt;interface&amp;gt;&amp;gt;&lt;br&gt;MessageSource&lt;br&gt;&lt;/font&gt;" style="whiteSpace=wrap;html=1;fontSize=22;" vertex="1" parent="1">
          <mxGeometry x="-760" y="460" width="170" height="70" as="geometry" />
        </mxCell>
        <mxCell id="wY_cGd22NzN3HougYjzs-90" value="&lt;font style=&quot;font-size: 18px&quot;&gt;&amp;lt;&amp;lt;interface&amp;gt;&amp;gt;&lt;br&gt;Application&lt;br&gt;EventPublisher&lt;br&gt;&lt;/font&gt;" style="whiteSpace=wrap;html=1;fontSize=22;" vertex="1" parent="1">
          <mxGeometry x="-280" y="300" width="190" height="90" as="geometry" />
        </mxCell>
        <mxCell id="wY_cGd22NzN3HougYjzs-91" value="&lt;font style=&quot;font-size: 18px&quot;&gt;&amp;lt;&amp;lt;interface&amp;gt;&amp;gt;&lt;br&gt;ResourceLoder&lt;br&gt;&lt;/font&gt;" style="whiteSpace=wrap;html=1;fontSize=22;" vertex="1" parent="1">
          <mxGeometry x="-170" y="460" width="170" height="70" as="geometry" />
        </mxCell>
        <mxCell id="wY_cGd22NzN3HougYjzs-93" value="" style="endArrow=classic;html=1;rounded=0;fontSize=17;strokeColor=#000000;strokeWidth=3;exitX=0;exitY=0.25;exitDx=0;exitDy=0;entryX=1;entryY=0.5;entryDx=0;entryDy=0;" edge="1" parent="1" source="wY_cGd22NzN3HougYjzs-67" target="wY_cGd22NzN3HougYjzs-89">
          <mxGeometry width="50" height="50" relative="1" as="geometry">
            <mxPoint x="-410" y="420" as="sourcePoint" />
            <mxPoint x="-360" y="370" as="targetPoint" />
          </mxGeometry>
        </mxCell>
        <mxCell id="wY_cGd22NzN3HougYjzs-96" value="" style="endArrow=classic;html=1;rounded=0;fontSize=17;strokeColor=#000000;strokeWidth=3;exitX=0.143;exitY=-0.037;exitDx=0;exitDy=0;exitPerimeter=0;" edge="1" parent="1" source="wY_cGd22NzN3HougYjzs-67" target="wY_cGd22NzN3HougYjzs-88">
          <mxGeometry width="50" height="50" relative="1" as="geometry">
            <mxPoint x="-410" y="420" as="sourcePoint" />
            <mxPoint x="-360" y="370" as="targetPoint" />
          </mxGeometry>
        </mxCell>
        <mxCell id="wY_cGd22NzN3HougYjzs-97" value="" style="endArrow=classic;html=1;rounded=0;fontSize=17;strokeColor=#000000;strokeWidth=3;exitX=1;exitY=0.25;exitDx=0;exitDy=0;entryX=0;entryY=0.25;entryDx=0;entryDy=0;" edge="1" parent="1" source="wY_cGd22NzN3HougYjzs-67" target="wY_cGd22NzN3HougYjzs-91">
          <mxGeometry width="50" height="50" relative="1" as="geometry">
            <mxPoint x="-410" y="420" as="sourcePoint" />
            <mxPoint x="-360" y="370" as="targetPoint" />
          </mxGeometry>
        </mxCell>
        <mxCell id="wY_cGd22NzN3HougYjzs-98" value="" style="endArrow=classic;html=1;rounded=0;fontSize=17;strokeColor=#000000;strokeWidth=3;exitX=0.75;exitY=0;exitDx=0;exitDy=0;entryX=0.5;entryY=1;entryDx=0;entryDy=0;" edge="1" parent="1" source="wY_cGd22NzN3HougYjzs-67" target="wY_cGd22NzN3HougYjzs-90">
          <mxGeometry width="50" height="50" relative="1" as="geometry">
            <mxPoint x="-410" y="420" as="sourcePoint" />
            <mxPoint x="-360" y="370" as="targetPoint" />
          </mxGeometry>
        </mxCell>
        <mxCell id="wY_cGd22NzN3HougYjzs-99" value="&lt;font style=&quot;font-size: 22px&quot;&gt;인터페이스 분리 원칙에 의해 굉장히 많은 분리가 되어 있다.&lt;/font&gt;" style="text;html=1;align=center;verticalAlign=middle;resizable=0;points=[];autosize=1;strokeColor=none;fillColor=none;fontSize=17;" vertex="1" parent="1">
          <mxGeometry x="-680" y="150" width="600" height="30" as="geometry" />
        </mxCell>
        <mxCell id="wY_cGd22NzN3HougYjzs-100" value="&lt;font style=&quot;font-size: 18px&quot;&gt;로컬, 개발 운영 등을 구분해서 처리&lt;/font&gt;" style="text;html=1;align=center;verticalAlign=middle;resizable=0;points=[];autosize=1;strokeColor=none;fillColor=none;fontSize=22;" vertex="1" parent="1">
          <mxGeometry x="-755" y="290" width="300" height="30" as="geometry" />
        </mxCell>
        <mxCell id="wY_cGd22NzN3HougYjzs-101" value="메시지 소스를 활용한 국제화 기능&lt;br&gt;한국에서 접속하면 한국어 페이지&lt;br&gt;영어권에서 접속하면 영어 페이지" style="text;html=1;align=center;verticalAlign=middle;resizable=0;points=[];autosize=1;strokeColor=none;fillColor=none;fontSize=18;" vertex="1" parent="1">
          <mxGeometry x="-830" y="540" width="290" height="70" as="geometry" />
        </mxCell>
        <mxCell id="wY_cGd22NzN3HougYjzs-102" value="이벤트를 발행하고 구독하는 모델을 &lt;br&gt;편리하게 지원" style="text;html=1;align=center;verticalAlign=middle;resizable=0;points=[];autosize=1;strokeColor=none;fillColor=none;fontSize=18;" vertex="1" parent="1">
          <mxGeometry x="-270" y="250" width="300" height="50" as="geometry" />
        </mxCell>
        <mxCell id="wY_cGd22NzN3HougYjzs-103" value="파일, 클래스패스, 외부 등에서&lt;br&gt;리소스를 편리하게 조회" style="text;html=1;align=center;verticalAlign=middle;resizable=0;points=[];autosize=1;strokeColor=none;fillColor=none;fontSize=18;" vertex="1" parent="1">
          <mxGeometry x="-240" y="535" width="260" height="50" as="geometry" />
        </mxCell>
        <mxCell id="wY_cGd22NzN3HougYjzs-107" value="&lt;font style=&quot;font-size: 18px&quot;&gt;&amp;lt;&amp;lt;interface&amp;gt;&amp;gt;&lt;br&gt;ApplicationContext&lt;br&gt;&lt;/font&gt;" style="whiteSpace=wrap;html=1;fontSize=22;" vertex="1" parent="1">
          <mxGeometry x="-550" y="650" width="170" height="70" as="geometry" />
        </mxCell>
        <mxCell id="wY_cGd22NzN3HougYjzs-119" style="edgeStyle=orthogonalEdgeStyle;rounded=0;orthogonalLoop=1;jettySize=auto;html=1;exitX=0.5;exitY=1;exitDx=0;exitDy=0;fontSize=18;strokeColor=#6666FF;strokeWidth=3;" edge="1" parent="1" source="wY_cGd22NzN3HougYjzs-108">
          <mxGeometry relative="1" as="geometry">
            <mxPoint x="-684.7058823529412" y="915" as="targetPoint" />
          </mxGeometry>
        </mxCell>
        <mxCell id="wY_cGd22NzN3HougYjzs-108" value="&lt;font style=&quot;font-size: 18px&quot;&gt;AnnotationConfig&lt;br&gt;ApplicationContext&lt;br&gt;&lt;/font&gt;" style="whiteSpace=wrap;html=1;fontSize=22;" vertex="1" parent="1">
          <mxGeometry x="-770" y="795" width="170" height="70" as="geometry" />
        </mxCell>
        <mxCell id="wY_cGd22NzN3HougYjzs-114" style="edgeStyle=orthogonalEdgeStyle;rounded=0;orthogonalLoop=1;jettySize=auto;html=1;exitX=0.5;exitY=0;exitDx=0;exitDy=0;entryX=0.5;entryY=1;entryDx=0;entryDy=0;fontSize=18;strokeColor=#6666FF;strokeWidth=3;" edge="1" parent="1" source="wY_cGd22NzN3HougYjzs-109" target="wY_cGd22NzN3HougYjzs-107">
          <mxGeometry relative="1" as="geometry" />
        </mxCell>
        <mxCell id="wY_cGd22NzN3HougYjzs-120" style="edgeStyle=orthogonalEdgeStyle;rounded=0;orthogonalLoop=1;jettySize=auto;html=1;exitX=0.5;exitY=1;exitDx=0;exitDy=0;fontSize=18;strokeColor=#6666FF;strokeWidth=3;" edge="1" parent="1" source="wY_cGd22NzN3HougYjzs-109">
          <mxGeometry relative="1" as="geometry">
            <mxPoint x="-464.705882352941" y="915" as="targetPoint" />
          </mxGeometry>
        </mxCell>
        <mxCell id="wY_cGd22NzN3HougYjzs-109" value="&lt;font style=&quot;font-size: 18px&quot;&gt;GenericXml&lt;br&gt;ApplicationContext&lt;br&gt;&lt;/font&gt;" style="whiteSpace=wrap;html=1;fontSize=22;" vertex="1" parent="1">
          <mxGeometry x="-550" y="795" width="170" height="70" as="geometry" />
        </mxCell>
        <mxCell id="wY_cGd22NzN3HougYjzs-121" style="edgeStyle=orthogonalEdgeStyle;rounded=0;orthogonalLoop=1;jettySize=auto;html=1;fontSize=18;strokeColor=#6666FF;strokeWidth=3;" edge="1" parent="1" source="wY_cGd22NzN3HougYjzs-110">
          <mxGeometry relative="1" as="geometry">
            <mxPoint x="-245" y="915" as="targetPoint" />
          </mxGeometry>
        </mxCell>
        <mxCell id="wY_cGd22NzN3HougYjzs-110" value="&lt;font style=&quot;font-size: 18px&quot;&gt;Xxx&lt;br&gt;ApplicationContext&lt;br&gt;&lt;/font&gt;" style="whiteSpace=wrap;html=1;fontSize=22;" vertex="1" parent="1">
          <mxGeometry x="-330" y="795" width="170" height="70" as="geometry" />
        </mxCell>
        <mxCell id="wY_cGd22NzN3HougYjzs-117" value="" style="endArrow=classic;html=1;rounded=0;fontSize=18;strokeColor=#6666FF;strokeWidth=3;exitX=0.5;exitY=0;exitDx=0;exitDy=0;entryX=0.25;entryY=1;entryDx=0;entryDy=0;" edge="1" parent="1" source="wY_cGd22NzN3HougYjzs-108" target="wY_cGd22NzN3HougYjzs-107">
          <mxGeometry width="50" height="50" relative="1" as="geometry">
            <mxPoint x="-450" y="765" as="sourcePoint" />
            <mxPoint x="-470" y="725" as="targetPoint" />
          </mxGeometry>
        </mxCell>
        <mxCell id="wY_cGd22NzN3HougYjzs-118" value="" style="endArrow=classic;html=1;rounded=0;fontSize=18;strokeColor=#6666FF;strokeWidth=3;exitX=0.5;exitY=0;exitDx=0;exitDy=0;entryX=0.75;entryY=1;entryDx=0;entryDy=0;" edge="1" parent="1" source="wY_cGd22NzN3HougYjzs-110" target="wY_cGd22NzN3HougYjzs-107">
          <mxGeometry width="50" height="50" relative="1" as="geometry">
            <mxPoint x="-450" y="765" as="sourcePoint" />
            <mxPoint x="-400" y="715" as="targetPoint" />
          </mxGeometry>
        </mxCell>
        <mxCell id="wY_cGd22NzN3HougYjzs-122" value="AppConfig.class" style="text;html=1;align=center;verticalAlign=middle;resizable=0;points=[];autosize=1;strokeColor=none;fillColor=none;fontSize=18;" vertex="1" parent="1">
          <mxGeometry x="-770" y="1045" width="150" height="30" as="geometry" />
        </mxCell>
        <mxCell id="wY_cGd22NzN3HougYjzs-123" value="appConfig.xml" style="text;html=1;align=center;verticalAlign=middle;resizable=0;points=[];autosize=1;strokeColor=none;fillColor=none;fontSize=18;" vertex="1" parent="1">
          <mxGeometry x="-540" y="1045" width="130" height="30" as="geometry" />
        </mxCell>
        <mxCell id="wY_cGd22NzN3HougYjzs-124" value="appConfig.xxx" style="text;html=1;align=center;verticalAlign=middle;resizable=0;points=[];autosize=1;strokeColor=none;fillColor=none;fontSize=18;" vertex="1" parent="1">
          <mxGeometry x="-300" y="1045" width="130" height="30" as="geometry" />
        </mxCell>
        <mxCell id="wY_cGd22NzN3HougYjzs-137" value="BeanDefinition" style="rounded=1;whiteSpace=wrap;html=1;fontSize=18;" vertex="1" parent="1">
          <mxGeometry x="-930" y="880" width="150" height="30" as="geometry" />
        </mxCell>
        <mxCell id="wY_cGd22NzN3HougYjzs-138" value="BeanDefinition" style="rounded=1;whiteSpace=wrap;html=1;fontSize=18;" vertex="1" parent="1">
          <mxGeometry x="-660" y="880" width="150" height="30" as="geometry" />
        </mxCell>
        <mxCell id="wY_cGd22NzN3HougYjzs-139" value="BeanDefinition" style="rounded=1;whiteSpace=wrap;html=1;fontSize=18;" vertex="1" parent="1">
          <mxGeometry x="-420" y="880" width="150" height="30" as="geometry" />
        </mxCell>
        <mxCell id="wY_cGd22NzN3HougYjzs-142" value="" style="curved=1;endArrow=classic;html=1;rounded=0;fontSize=18;strokeColor=#6666FF;strokeWidth=3;exitX=0.003;exitY=0.684;exitDx=0;exitDy=0;exitPerimeter=0;entryX=0.5;entryY=1;entryDx=0;entryDy=0;" edge="1" parent="1" source="wY_cGd22NzN3HougYjzs-122" target="wY_cGd22NzN3HougYjzs-137">
          <mxGeometry width="50" height="50" relative="1" as="geometry">
            <mxPoint x="-900" y="1045" as="sourcePoint" />
            <mxPoint x="-850" y="995" as="targetPoint" />
            <Array as="points">
              <mxPoint x="-850" y="1045" />
              <mxPoint x="-900" y="995" />
            </Array>
          </mxGeometry>
        </mxCell>
        <mxCell id="wY_cGd22NzN3HougYjzs-143" value="" style="curved=1;endArrow=classic;html=1;rounded=0;fontSize=18;strokeColor=#6666FF;strokeWidth=3;entryX=0.5;entryY=1;entryDx=0;entryDy=0;" edge="1" parent="1">
          <mxGeometry width="50" height="50" relative="1" as="geometry">
            <mxPoint x="-540" y="1060" as="sourcePoint" />
            <mxPoint x="-585" y="912.5" as="targetPoint" />
            <Array as="points">
              <mxPoint x="-580" y="1047.5" />
              <mxPoint x="-610" y="998" />
            </Array>
          </mxGeometry>
        </mxCell>
        <mxCell id="wY_cGd22NzN3HougYjzs-144" value="" style="curved=1;endArrow=classic;html=1;rounded=0;fontSize=18;strokeColor=#6666FF;strokeWidth=3;entryX=0.5;entryY=1;entryDx=0;entryDy=0;" edge="1" parent="1">
          <mxGeometry width="50" height="50" relative="1" as="geometry">
            <mxPoint x="-300" y="1060" as="sourcePoint" />
            <mxPoint x="-345" y="912.5" as="targetPoint" />
            <Array as="points">
              <mxPoint x="-340" y="1047.5" />
              <mxPoint x="-370" y="998" />
            </Array>
          </mxGeometry>
        </mxCell>
        <mxCell id="wY_cGd22NzN3HougYjzs-145" value="1. 설정 정보 읽기" style="text;html=1;align=center;verticalAlign=middle;resizable=0;points=[];autosize=1;strokeColor=none;fillColor=none;fontSize=18;" vertex="1" parent="1">
          <mxGeometry x="-860" y="1000" width="150" height="30" as="geometry" />
        </mxCell>
        <mxCell id="wY_cGd22NzN3HougYjzs-146" value="2. 빈 메타정보 생성" style="text;html=1;align=center;verticalAlign=middle;resizable=0;points=[];autosize=1;strokeColor=none;fillColor=none;fontSize=18;" vertex="1" parent="1">
          <mxGeometry x="-960" y="840" width="170" height="30" as="geometry" />
        </mxCell>
        <mxCell id="wY_cGd22NzN3HougYjzs-147" value="" style="shape=table;html=1;whiteSpace=wrap;startSize=0;container=1;collapsible=0;childLayout=tableLayout;fontSize=18;" vertex="1" parent="1">
          <mxGeometry x="-1140" y="110" width="240" height="160" as="geometry" />
        </mxCell>
        <mxCell id="wY_cGd22NzN3HougYjzs-152" value="" style="shape=tableRow;horizontal=0;startSize=0;swimlaneHead=0;swimlaneBody=0;top=0;left=0;bottom=0;right=0;collapsible=0;dropTarget=0;fillColor=none;points=[[0,0.5],[1,0.5]];portConstraint=eastwest;fontSize=18;" vertex="1" parent="wY_cGd22NzN3HougYjzs-147">
          <mxGeometry width="240" height="40" as="geometry" />
        </mxCell>
        <mxCell id="wY_cGd22NzN3HougYjzs-153" value="1,1" style="shape=partialRectangle;html=1;whiteSpace=wrap;connectable=0;fillColor=none;top=0;left=0;bottom=0;right=0;overflow=hidden;fontSize=18;" vertex="1" parent="wY_cGd22NzN3HougYjzs-152">
          <mxGeometry width="60" height="40" as="geometry">
            <mxRectangle width="60" height="40" as="alternateBounds" />
          </mxGeometry>
        </mxCell>
        <mxCell id="wY_cGd22NzN3HougYjzs-154" value="1,2" style="shape=partialRectangle;html=1;whiteSpace=wrap;connectable=0;fillColor=none;top=0;left=0;bottom=0;right=0;overflow=hidden;fontSize=18;" vertex="1" parent="wY_cGd22NzN3HougYjzs-152">
          <mxGeometry x="60" width="60" height="40" as="geometry">
            <mxRectangle width="60" height="40" as="alternateBounds" />
          </mxGeometry>
        </mxCell>
        <mxCell id="wY_cGd22NzN3HougYjzs-155" value="1,3" style="shape=partialRectangle;html=1;whiteSpace=wrap;connectable=0;fillColor=none;top=0;left=0;bottom=0;right=0;overflow=hidden;fontSize=18;" vertex="1" parent="wY_cGd22NzN3HougYjzs-152">
          <mxGeometry x="120" width="60" height="40" as="geometry">
            <mxRectangle width="60" height="40" as="alternateBounds" />
          </mxGeometry>
        </mxCell>
        <mxCell id="wY_cGd22NzN3HougYjzs-176" value="1,4" style="shape=partialRectangle;html=1;whiteSpace=wrap;connectable=0;fillColor=none;top=0;left=0;bottom=0;right=0;overflow=hidden;fontSize=18;" vertex="1" parent="wY_cGd22NzN3HougYjzs-152">
          <mxGeometry x="180" width="60" height="40" as="geometry">
            <mxRectangle width="60" height="40" as="alternateBounds" />
          </mxGeometry>
        </mxCell>
        <mxCell id="wY_cGd22NzN3HougYjzs-156" value="" style="shape=tableRow;horizontal=0;startSize=0;swimlaneHead=0;swimlaneBody=0;top=0;left=0;bottom=0;right=0;collapsible=0;dropTarget=0;fillColor=none;points=[[0,0.5],[1,0.5]];portConstraint=eastwest;fontSize=18;" vertex="1" parent="wY_cGd22NzN3HougYjzs-147">
          <mxGeometry y="40" width="240" height="40" as="geometry" />
        </mxCell>
        <mxCell id="wY_cGd22NzN3HougYjzs-157" value="2,1" style="shape=partialRectangle;html=1;whiteSpace=wrap;connectable=0;fillColor=none;top=0;left=0;bottom=0;right=0;overflow=hidden;fontSize=18;" vertex="1" parent="wY_cGd22NzN3HougYjzs-156">
          <mxGeometry width="60" height="40" as="geometry">
            <mxRectangle width="60" height="40" as="alternateBounds" />
          </mxGeometry>
        </mxCell>
        <mxCell id="wY_cGd22NzN3HougYjzs-158" value="2,2" style="shape=partialRectangle;html=1;whiteSpace=wrap;connectable=0;fillColor=none;top=0;left=0;bottom=0;right=0;overflow=hidden;fontSize=18;" vertex="1" parent="wY_cGd22NzN3HougYjzs-156">
          <mxGeometry x="60" width="60" height="40" as="geometry">
            <mxRectangle width="60" height="40" as="alternateBounds" />
          </mxGeometry>
        </mxCell>
        <mxCell id="wY_cGd22NzN3HougYjzs-159" value="2,3" style="shape=partialRectangle;html=1;whiteSpace=wrap;connectable=0;fillColor=none;top=0;left=0;bottom=0;right=0;overflow=hidden;pointerEvents=1;fontSize=18;" vertex="1" parent="wY_cGd22NzN3HougYjzs-156">
          <mxGeometry x="120" width="60" height="40" as="geometry">
            <mxRectangle width="60" height="40" as="alternateBounds" />
          </mxGeometry>
        </mxCell>
        <mxCell id="wY_cGd22NzN3HougYjzs-177" value="2,4" style="shape=partialRectangle;html=1;whiteSpace=wrap;connectable=0;fillColor=none;top=0;left=0;bottom=0;right=0;overflow=hidden;pointerEvents=1;fontSize=18;" vertex="1" parent="wY_cGd22NzN3HougYjzs-156">
          <mxGeometry x="180" width="60" height="40" as="geometry">
            <mxRectangle width="60" height="40" as="alternateBounds" />
          </mxGeometry>
        </mxCell>
        <mxCell id="wY_cGd22NzN3HougYjzs-163" style="shape=tableRow;horizontal=0;startSize=0;swimlaneHead=0;swimlaneBody=0;top=0;left=0;bottom=0;right=0;collapsible=0;dropTarget=0;fillColor=none;points=[[0,0.5],[1,0.5]];portConstraint=eastwest;fontSize=18;" vertex="1" parent="wY_cGd22NzN3HougYjzs-147">
          <mxGeometry y="80" width="240" height="40" as="geometry" />
        </mxCell>
        <mxCell id="wY_cGd22NzN3HougYjzs-164" value="3,1" style="shape=partialRectangle;html=1;whiteSpace=wrap;connectable=0;fillColor=none;top=0;left=0;bottom=0;right=0;overflow=hidden;fontSize=18;" vertex="1" parent="wY_cGd22NzN3HougYjzs-163">
          <mxGeometry width="60" height="40" as="geometry">
            <mxRectangle width="60" height="40" as="alternateBounds" />
          </mxGeometry>
        </mxCell>
        <mxCell id="wY_cGd22NzN3HougYjzs-165" value="3,2" style="shape=partialRectangle;html=1;whiteSpace=wrap;connectable=0;fillColor=none;top=0;left=0;bottom=0;right=0;overflow=hidden;fontSize=18;" vertex="1" parent="wY_cGd22NzN3HougYjzs-163">
          <mxGeometry x="60" width="60" height="40" as="geometry">
            <mxRectangle width="60" height="40" as="alternateBounds" />
          </mxGeometry>
        </mxCell>
        <mxCell id="wY_cGd22NzN3HougYjzs-166" value="3,3" style="shape=partialRectangle;html=1;whiteSpace=wrap;connectable=0;fillColor=none;top=0;left=0;bottom=0;right=0;overflow=hidden;pointerEvents=1;fontSize=18;" vertex="1" parent="wY_cGd22NzN3HougYjzs-163">
          <mxGeometry x="120" width="60" height="40" as="geometry">
            <mxRectangle width="60" height="40" as="alternateBounds" />
          </mxGeometry>
        </mxCell>
        <mxCell id="wY_cGd22NzN3HougYjzs-178" value="3,4" style="shape=partialRectangle;html=1;whiteSpace=wrap;connectable=0;fillColor=none;top=0;left=0;bottom=0;right=0;overflow=hidden;pointerEvents=1;fontSize=18;" vertex="1" parent="wY_cGd22NzN3HougYjzs-163">
          <mxGeometry x="180" width="60" height="40" as="geometry">
            <mxRectangle width="60" height="40" as="alternateBounds" />
          </mxGeometry>
        </mxCell>
        <mxCell id="wY_cGd22NzN3HougYjzs-168" style="shape=tableRow;horizontal=0;startSize=0;swimlaneHead=0;swimlaneBody=0;top=0;left=0;bottom=0;right=0;collapsible=0;dropTarget=0;fillColor=none;points=[[0,0.5],[1,0.5]];portConstraint=eastwest;fontSize=18;" vertex="1" parent="wY_cGd22NzN3HougYjzs-147">
          <mxGeometry y="120" width="240" height="40" as="geometry" />
        </mxCell>
        <mxCell id="wY_cGd22NzN3HougYjzs-169" value="4,1" style="shape=partialRectangle;html=1;whiteSpace=wrap;connectable=0;fillColor=none;top=0;left=0;bottom=0;right=0;overflow=hidden;fontSize=18;" vertex="1" parent="wY_cGd22NzN3HougYjzs-168">
          <mxGeometry width="60" height="40" as="geometry">
            <mxRectangle width="60" height="40" as="alternateBounds" />
          </mxGeometry>
        </mxCell>
        <mxCell id="wY_cGd22NzN3HougYjzs-170" value="4,2" style="shape=partialRectangle;html=1;whiteSpace=wrap;connectable=0;fillColor=none;top=0;left=0;bottom=0;right=0;overflow=hidden;fontSize=18;" vertex="1" parent="wY_cGd22NzN3HougYjzs-168">
          <mxGeometry x="60" width="60" height="40" as="geometry">
            <mxRectangle width="60" height="40" as="alternateBounds" />
          </mxGeometry>
        </mxCell>
        <mxCell id="wY_cGd22NzN3HougYjzs-171" value="4,3" style="shape=partialRectangle;html=1;whiteSpace=wrap;connectable=0;fillColor=none;top=0;left=0;bottom=0;right=0;overflow=hidden;pointerEvents=1;fontSize=18;" vertex="1" parent="wY_cGd22NzN3HougYjzs-168">
          <mxGeometry x="120" width="60" height="40" as="geometry">
            <mxRectangle width="60" height="40" as="alternateBounds" />
          </mxGeometry>
        </mxCell>
        <mxCell id="wY_cGd22NzN3HougYjzs-179" value="4,4" style="shape=partialRectangle;html=1;whiteSpace=wrap;connectable=0;fillColor=none;top=0;left=0;bottom=0;right=0;overflow=hidden;pointerEvents=1;fontSize=18;" vertex="1" parent="wY_cGd22NzN3HougYjzs-168">
          <mxGeometry x="180" width="60" height="40" as="geometry">
            <mxRectangle width="60" height="40" as="alternateBounds" />
          </mxGeometry>
        </mxCell>
        <mxCell id="wY_cGd22NzN3HougYjzs-180" value="1 1 1 1&lt;br&gt;1 1 1 2&lt;br&gt;1 1 1 3&lt;br&gt;1 1 1 4&lt;br&gt;1 1 2 1&lt;br&gt;1 1 2 2&lt;br&gt;..." style="text;html=1;align=center;verticalAlign=middle;resizable=0;points=[];autosize=1;strokeColor=none;fillColor=none;fontSize=18;" vertex="1" parent="1">
          <mxGeometry x="-1280" y="120" width="70" height="160" as="geometry" />
        </mxCell>
        <mxCell id="wY_cGd22NzN3HougYjzs-181" value="i = 1, j= 1" style="text;html=1;align=center;verticalAlign=middle;resizable=0;points=[];autosize=1;strokeColor=none;fillColor=none;fontSize=18;" vertex="1" parent="1">
          <mxGeometry x="-1195" y="315" width="90" height="30" as="geometry" />
        </mxCell>
        <mxCell id="wY_cGd22NzN3HougYjzs-182" value="@Component" style="whiteSpace=wrap;html=1;fontSize=22;" vertex="1" parent="1">
          <mxGeometry x="-1450" y="500" width="170" height="80" as="geometry" />
        </mxCell>
        <mxCell id="wY_cGd22NzN3HougYjzs-184" value="@Contorller" style="whiteSpace=wrap;html=1;fontSize=22;" vertex="1" parent="1">
          <mxGeometry x="-1747.5" y="670" width="145" height="65" as="geometry" />
        </mxCell>
        <mxCell id="wY_cGd22NzN3HougYjzs-185" value="스프링 MVC 컨트롤러로 인식" style="text;html=1;align=center;verticalAlign=middle;resizable=0;points=[];autosize=1;strokeColor=none;fillColor=none;fontSize=18;" vertex="1" parent="1">
          <mxGeometry x="-1800" y="742.5" width="250" height="30" as="geometry" />
        </mxCell>
        <mxCell id="wY_cGd22NzN3HougYjzs-190" value="@Service" style="whiteSpace=wrap;html=1;fontSize=22;" vertex="1" parent="1">
          <mxGeometry x="-1590" y="840" width="130" height="65" as="geometry" />
        </mxCell>
        <mxCell id="wY_cGd22NzN3HougYjzs-191" value="@Repository" style="whiteSpace=wrap;html=1;fontSize=18;" vertex="1" parent="1">
          <mxGeometry x="-1319" y="912.5" width="115" height="70" as="geometry" />
        </mxCell>
        <mxCell id="wY_cGd22NzN3HougYjzs-192" value="특별한 처리는 안하지만&lt;br&gt;핵심 비즈니스 로직이 있는 곳이라는 표시" style="text;html=1;align=center;verticalAlign=middle;resizable=0;points=[];autosize=1;strokeColor=none;fillColor=none;fontSize=18;" vertex="1" parent="1">
          <mxGeometry x="-1695" y="900" width="350" height="50" as="geometry" />
        </mxCell>
        <mxCell id="wY_cGd22NzN3HougYjzs-196" value="스프링 데이터 접근 계층으로 인식하고&lt;br&gt;데이터 계층의 예외를 스프링 예외로 변환" style="text;html=1;align=center;verticalAlign=middle;resizable=0;points=[];autosize=1;strokeColor=none;fillColor=none;fontSize=18;" vertex="1" parent="1">
          <mxGeometry x="-1430" y="987.5" width="350" height="50" as="geometry" />
        </mxCell>
        <mxCell id="wY_cGd22NzN3HougYjzs-197" value="@Configuration" style="whiteSpace=wrap;html=1;fontSize=22;" vertex="1" parent="1">
          <mxGeometry x="-1210" y="650" width="180" height="65" as="geometry" />
        </mxCell>
        <mxCell id="wY_cGd22NzN3HougYjzs-198" value="스프링 설정 정보로 인식하고&lt;br&gt;스프링 빈이 싱글톤을 유지하도록 추가 처리" style="text;html=1;align=center;verticalAlign=middle;resizable=0;points=[];autosize=1;strokeColor=none;fillColor=none;fontSize=18;" vertex="1" parent="1">
          <mxGeometry x="-1310" y="720" width="360" height="50" as="geometry" />
        </mxCell>
        <mxCell id="wY_cGd22NzN3HougYjzs-201" value="" style="endArrow=classic;html=1;rounded=0;fontSize=18;strokeColor=#6666FF;strokeWidth=3;exitX=0.75;exitY=0;exitDx=0;exitDy=0;entryX=0.25;entryY=1;entryDx=0;entryDy=0;" edge="1" parent="1" source="wY_cGd22NzN3HougYjzs-184" target="wY_cGd22NzN3HougYjzs-182">
          <mxGeometry width="50" height="50" relative="1" as="geometry">
            <mxPoint x="-1460" y="690" as="sourcePoint" />
            <mxPoint x="-1410" y="640" as="targetPoint" />
          </mxGeometry>
        </mxCell>
        <mxCell id="wY_cGd22NzN3HougYjzs-202" value="" style="endArrow=classic;html=1;rounded=0;fontSize=18;strokeColor=#6666FF;strokeWidth=3;exitX=0;exitY=0.5;exitDx=0;exitDy=0;entryX=0.75;entryY=1;entryDx=0;entryDy=0;" edge="1" parent="1" source="wY_cGd22NzN3HougYjzs-197" target="wY_cGd22NzN3HougYjzs-182">
          <mxGeometry width="50" height="50" relative="1" as="geometry">
            <mxPoint x="-1460" y="690" as="sourcePoint" />
            <mxPoint x="-1410" y="640" as="targetPoint" />
          </mxGeometry>
        </mxCell>
        <mxCell id="wY_cGd22NzN3HougYjzs-203" value="" style="endArrow=classic;html=1;rounded=0;fontSize=18;strokeColor=#6666FF;strokeWidth=3;exitX=0.5;exitY=0;exitDx=0;exitDy=0;entryX=0.601;entryY=1.012;entryDx=0;entryDy=0;entryPerimeter=0;" edge="1" parent="1" source="wY_cGd22NzN3HougYjzs-191" target="wY_cGd22NzN3HougYjzs-182">
          <mxGeometry width="50" height="50" relative="1" as="geometry">
            <mxPoint x="-1460" y="690" as="sourcePoint" />
            <mxPoint x="-1410" y="640" as="targetPoint" />
          </mxGeometry>
        </mxCell>
        <mxCell id="wY_cGd22NzN3HougYjzs-204" value="" style="endArrow=classic;html=1;rounded=0;fontSize=18;strokeColor=#6666FF;strokeWidth=3;exitX=0.5;exitY=0;exitDx=0;exitDy=0;entryX=0.41;entryY=1.012;entryDx=0;entryDy=0;entryPerimeter=0;" edge="1" parent="1" source="wY_cGd22NzN3HougYjzs-190" target="wY_cGd22NzN3HougYjzs-182">
          <mxGeometry width="50" height="50" relative="1" as="geometry">
            <mxPoint x="-1460" y="690" as="sourcePoint" />
            <mxPoint x="-1410" y="640" as="targetPoint" />
          </mxGeometry>
        </mxCell>
        <mxCell id="wY_cGd22NzN3HougYjzs-205" value="" style="rounded=0;whiteSpace=wrap;html=1;" vertex="1" parent="1">
          <mxGeometry x="-770" y="1270" width="420" height="210" as="geometry" />
        </mxCell>
        <mxCell id="wY_cGd22NzN3HougYjzs-206" value="&lt;font style=&quot;font-size: 22px&quot;&gt;스프링 컨테이너&lt;/font&gt;" style="text;html=1;align=center;verticalAlign=middle;resizable=0;points=[];autosize=1;strokeColor=none;fillColor=none;" vertex="1" parent="1">
          <mxGeometry x="-656" y="1240" width="180" height="20" as="geometry" />
        </mxCell>
      </root>
    </mxGraphModel>
  </diagram>
</mxfile>
